# xmcd
#
# Track frame offsets:
#	150
#	8842
#	19972
#	30296
#	40769
#	52261
#	60471
#	73518
#	84871
#	95596
#	104481
#	113139
#	120042
#	129562
#	141467
#	151251
#
# Disc length: 2202 seconds
#
# Revision: 1
# Processed by: cddbd v1.5.2PL0 Copyright (c) Steve Scherf et al.
# Submitted via: EasyCDDAExtractor 5.0.6
#
DISCID=ca089810
DTITLE=The Bombs - Don't Wait Too Long
DYEAR=2014
DGENRE=Rock and Roll
TTITLE0=When You're In Love
TTITLE1=Sad and Blue
TTITLE2=I Know Any Heartache Is From Me
TTITLE3=What A Babe
TTITLE4=Aged 16 Years Scotch Whiskey
TTITLE5=Do The Bob
TTITLE6=Please Don't Go
TTITLE7=Dessert Eagle
TTITLE8=I Used To
TTITLE9=Words For Singing'
TTITLE10=Joggle, Wiggle and Waggle
TTITLE11=It's Hot
TTITLE12=Highway Cop
TTITLE13=Every Dog Has Its Day
TTITLE14=(Still) Young and Pretty
TTITLE15=Walking Blues in A-Minor
EXTD=
EXTT0=
EXTT1=
EXTT2=
EXTT3=
EXTT4=
EXTT5=
EXTT6=
EXTT7=
EXTT8=
EXTT9=
EXTT10=
EXTT11=
EXTT12=
EXTT13=
EXTT14=
EXTT15=
PLAYORDER=
